<?xml version="1.0" encoding="utf-8"?><!-- Uploaded to: SVG Repo, www.svgrepo.com, Generator: SVG Repo Mixer Tools -->
<svg width="800px" height="800px" viewBox="0 0 24 24" fill="none" xmlns="http://www.w3.org/2000/svg">
<path fill-rule="evenodd" clip-rule="evenodd" d="M6.07202 3.17291C4.32617 3.5202 2.72253 4.37738 1.46387 5.63605L3.59357 7.76575C4.43103 6.92835 5.49805 6.35803 6.65961 6.12695C7.53589 5.95264 8.43628 5.9773 9.29547 6.19452C9.07935 6.45056 8.87695 6.71936 8.68951 6.99988C7.70056 8.47992 7.17273 10.22 7.17273 12C7.17273 13.78 7.70056 15.5201 8.68951 17.0001C8.87695 17.2806 9.07941 17.5494 9.29553 17.8055C8.43634 18.0227 7.53589 18.0474 6.65961 17.873C5.49805 17.642 4.43103 17.0717 3.59357 16.2343L1.46387 18.364C2.72253 19.6226 4.32617 20.4798 6.07202 20.8271C7.81781 21.1743 9.62744 20.9961 11.272 20.3149C11.5204 20.212 11.7634 20.0983 12.0003 19.9744C12.2372 20.0983 12.4802 20.212 12.7286 20.3149C14.3731 20.9961 16.1827 21.1743 17.9285 20.8271C19.6744 20.4798 21.278 19.6226 22.5367 18.364L20.407 16.2343C19.5695 17.0717 18.5025 17.642 17.3409 17.873C16.4647 18.0474 15.5642 18.0227 14.705 17.8055C14.9211 17.5494 15.1236 17.2806 15.311 17.0001C16.3 15.5201 16.8278 13.78 16.8278 12C16.8278 10.22 16.3 8.47992 15.311 6.99988C15.1236 6.71936 14.9212 6.45056 14.7051 6.19452C15.5643 5.9773 16.4647 5.95264 17.3409 6.12695C18.5025 6.35803 19.5695 6.92835 20.407 7.76575L22.5367 5.63605C21.278 4.37738 19.6744 3.5202 17.9285 3.17291C16.1827 2.82568 14.3731 3.00391 12.7286 3.68506C12.4802 3.78796 12.2372 3.90167 12.0003 4.02564C11.7634 3.90167 11.5204 3.78796 11.272 3.68506C9.62744 3.00391 7.81781 2.82568 6.07202 3.17291ZM12.0003 7.7049C11.6996 7.99695 11.429 8.32117 11.1938 8.67316C10.5358 9.6579 10.1846 10.8157 10.1846 12C10.1846 13.1843 10.5358 14.3421 11.1938 15.3268C11.429 15.6788 11.6996 16.0031 12.0003 16.2951C12.301 16.0031 12.5715 15.6788 12.8068 15.3268C13.4647 14.3421 13.8159 13.1843 13.8159 12C13.8159 10.8157 13.4647 9.6579 12.8068 8.67316C12.5715 8.32117 12.301 7.99695 12.0003 7.7049Z" fill="#000000"/>
</svg>